<svg width="61" height="61" viewBox="0 0 61 61" fill="none" xmlns="http://www.w3.org/2000/svg">
<path d="M30.5002 21.3333C33.1966 21.3333 35.7825 22.4044 37.6891 24.311C39.5957 26.2176 40.6669 28.8035 40.6669 31.4999C40.6669 34.1963 39.5957 36.7822 37.6891 38.6888C35.7825 40.5955 33.1966 41.6666 30.5002 41.6666C27.8038 41.6666 25.2179 40.5955 23.3113 38.6888C21.4047 36.7822 20.3335 34.1963 20.3335 31.4999C20.3335 28.8035 21.4047 26.2176 23.3113 24.311C25.2179 22.4044 27.8038 21.3333 30.5002 21.3333ZM30.5002 26.4166C29.152 26.4166 27.8591 26.9521 26.9057 27.9055C25.9524 28.8588 25.4169 30.1517 25.4169 31.4999C25.4169 32.8481 25.9524 34.1411 26.9057 35.0944C27.8591 36.0477 29.152 36.5833 30.5002 36.5833C31.8484 36.5833 33.1413 36.0477 34.0947 35.0944C35.048 34.1411 35.5835 32.8481 35.5835 31.4999C35.5835 30.1517 35.048 28.8588 34.0947 27.9055C33.1413 26.9521 31.8484 26.4166 30.5002 26.4166ZM25.4169 56.9166C24.7815 56.9166 24.2477 56.4591 24.146 55.8491L23.2056 49.1137C21.6044 48.4782 20.2319 47.6141 18.9102 46.5974L12.5815 49.1645C12.0223 49.3678 11.336 49.1645 11.031 48.6053L5.9477 39.8112C5.61729 39.252 5.76979 38.5658 6.2527 38.1845L11.6156 33.9653L11.4377 31.4999L11.6156 28.9583L6.2527 24.8153C5.76979 24.4341 5.61729 23.7478 5.9477 23.1887L11.031 14.3945C11.336 13.8353 12.0223 13.6066 12.5815 13.8353L18.9102 16.377C20.2319 15.3858 21.6044 14.5216 23.2056 13.8862L24.146 7.15075C24.2477 6.54075 24.7815 6.08325 25.4169 6.08325H35.5835C36.219 6.08325 36.7527 6.54075 36.8544 7.15075L37.7948 13.8862C39.396 14.5216 40.7685 15.3858 42.0902 16.377L48.4189 13.8353C48.9781 13.6066 49.6644 13.8353 49.9694 14.3945L55.0527 23.1887C55.3831 23.7478 55.2306 24.4341 54.7477 24.8153L49.3848 28.9583L49.5627 31.4999L49.3848 34.0416L54.7477 38.1845C55.2306 38.5658 55.3831 39.252 55.0527 39.8112L49.9694 48.6053C49.6644 49.1645 48.9781 49.3932 48.4189 49.1645L42.0902 46.6228C40.7685 47.6141 39.396 48.4782 37.7948 49.1137L36.8544 55.8491C36.7527 56.4591 36.219 56.9166 35.5835 56.9166H25.4169ZM28.594 11.1666L27.6535 17.8003C24.6035 18.4358 21.9094 20.0624 19.9523 22.3245L13.8269 19.6812L11.9206 22.9853L17.2835 26.9249C16.2669 29.8987 16.2669 33.1266 17.2835 36.0749L11.8952 40.0399L13.8015 43.3441L19.9777 40.7007C21.9348 42.9374 24.6035 44.5641 27.6281 45.1741L28.5685 51.8332H32.4319L33.3723 45.1995C36.3969 44.5641 39.0656 42.9374 41.0227 40.7007L47.1989 43.3441L49.1052 40.0399L43.7169 36.1003C44.7335 33.1266 44.7335 29.8987 43.7169 26.9249L49.0798 22.9853L47.1735 19.6812L41.0481 22.3245C39.091 20.0624 36.3969 18.4358 33.3469 17.8258L32.4065 11.1666H28.594Z" fill="white"/>
</svg>
