<svg width="61" height="61" viewBox="0 0 61 61" fill="none" xmlns="http://www.w3.org/2000/svg">
<path d="M30.5002 50.8333C41.6835 50.8333 50.8335 41.6833 50.8335 30.4999C50.8335 19.3166 41.6835 10.1666 30.5002 10.1666C19.3168 10.1666 10.1668 19.3166 10.1668 30.4999C10.1668 41.6833 19.3168 50.8333 30.5002 50.8333ZM30.5002 5.08325C44.4793 5.08325 55.9168 16.5208 55.9168 30.4999C55.9168 44.4791 44.4793 55.9166 30.5002 55.9166C16.521 55.9166 5.0835 44.4791 5.0835 30.4999C5.0835 16.5208 16.521 5.08325 30.5002 5.08325ZM43.2085 35.3291L41.4293 38.6333L27.9585 31.2624V17.7916H31.771V28.9749L43.2085 35.3291Z" fill="white"/>
</svg>
