<?xml version="1.0" standalone="no"?>
<!DOCTYPE svg PUBLIC "-//W3C//DTD SVG 20010904//EN"
 "http://www.w3.org/TR/2001/REC-SVG-20010904/DTD/svg10.dtd">
<svg version="1.0" xmlns="http://www.w3.org/2000/svg"
 width="420.000000pt" height="420.000000pt" viewBox="0 0 420.000000 420.000000"
 preserveAspectRatio="xMidYMid meet">
<metadata>
Created by potrace 1.14, written by Peter Selinger 2001-2017
</metadata>
<g transform="translate(0.000000,420.000000) scale(0.100000,-0.100000)"
fill="#000000" stroke="none">
<path d="M2937 3520 c-61 -16 -110 -45 -156 -95 -40 -43 -45 -46 -84 -42 -77
8 -190 -34 -240 -90 -16 -18 -21 -19 -85 -6 -37 7 -75 18 -86 24 -10 6 -28 13
-40 15 -73 16 -106 20 -141 18 -22 -1 -56 2 -75 7 -71 19 -116 21 -153 5 -33
-13 -41 -13 -74 1 -79 33 -102 34 -132 4 -16 -16 -49 -33 -73 -39 -24 -6 -52
-20 -62 -31 -10 -11 -30 -23 -45 -26 -50 -11 -110 -83 -117 -142 -2 -12 -11
-30 -22 -41 -20 -20 -20 -19 -26 27 -3 26 -20 69 -36 95 -68 107 -230 127
-320 41 l-26 -25 -38 46 c-72 86 -168 106 -267 57 -35 -19 -64 -43 -84 -71
-27 -40 -30 -51 -30 -127 l0 -83 -43 -5 c-88 -10 -162 -90 -162 -177 0 -51 32
-113 76 -146 l37 -29 405 -5 405 -5 3 -38 c2 -20 9 -47 15 -58 10 -19 8 -53
-7 -159 -7 -53 -7 -252 0 -368 4 -56 4 -107 0 -113 -4 -7 -15 -2 -30 12 -51
48 -108 -10 -113 -114 -1 -28 -4 -53 -5 -55 -2 -1 -18 9 -35 24 -47 39 -122
64 -194 64 -110 0 -215 -66 -268 -168 -26 -51 -36 -159 -21 -214 10 -36 9 -38
-23 -58 -117 -72 -105 -242 22 -316 l41 -25 414 -6 413 -5 25 -32 c33 -41 133
-139 205 -201 32 -28 66 -57 75 -66 48 -46 165 -114 215 -125 84 -19 280 -25
390 -12 101 12 180 56 330 182 72 61 162 143 186 171 41 46 58 67 80 100 l24
35 343 -1 343 -1 39 26 c55 36 73 76 68 144 -4 49 -9 59 -46 93 -28 26 -54 41
-81 45 -39 6 -41 8 -41 42 0 20 -11 54 -25 79 -56 94 -186 115 -270 43 -30
-26 -55 -32 -55 -14 0 8 4 12 10 9 5 -3 7 0 4 9 -3 8 0 40 6 70 16 78 16 184
0 228 -18 50 -48 62 -89 37 -40 -24 -41 -24 -35 4 17 83 21 563 5 630 -14 60
-40 111 -80 157 -17 19 -31 37 -31 40 0 3 55 4 122 2 67 -2 142 2 166 8 61 15
117 53 149 101 37 57 44 148 15 206 -27 52 -91 109 -141 124 -34 10 -40 16
-46 48 -11 59 -50 135 -90 176 -71 70 -197 107 -288 85z"/>
</g>
</svg>
