<svg width="61" height="61" viewBox="0 0 61 61" fill="none" xmlns="http://www.w3.org/2000/svg">
<path d="M24.1457 21.6041L27.9582 25.4166L20.3332 33.0416L27.9582 40.6666L24.1457 44.4791L12.7082 33.0416L24.1457 21.6041ZM36.854 44.4791L33.0415 40.6666L40.6665 33.0416L33.0415 25.4166L36.854 21.6041L48.2915 33.0416L36.854 44.4791ZM53.3748 5.08325H7.62484C6.27665 5.08325 4.98369 5.61882 4.03038 6.57213C3.07707 7.52544 2.5415 8.8184 2.5415 10.1666V50.8332C2.5415 52.1814 3.07707 53.4744 4.03038 54.4277C4.98369 55.381 6.27665 55.9166 7.62484 55.9166H53.3748C54.723 55.9166 56.016 55.381 56.9693 54.4277C57.9226 53.4744 58.4582 52.1814 58.4582 50.8332V10.1666C58.4582 8.8184 57.9226 7.52544 56.9693 6.57213C56.016 5.61882 54.723 5.08325 53.3748 5.08325ZM53.3748 50.8332H7.62484V15.2499H53.3748V50.8332Z" fill="white"/>
</svg>
