<svg width="48" height="48" viewBox="0 0 48 48" fill="none" xmlns="http://www.w3.org/2000/svg">
<path d="M0.576172 1.00488V47.9489H47.5202V1.00488H0.576172ZM25.0772 41.1629C24.3857 42.5684 23.0642 43.4924 21.5342 43.9379C19.1822 44.4779 16.9337 44.1704 15.2597 43.1654C14.1392 42.4784 13.2647 41.4209 12.6722 40.2029C13.8632 39.4754 15.0512 38.7434 16.2422 38.0159C16.2737 38.0294 16.3667 38.1989 16.4927 38.4179C16.9472 39.1814 17.3402 39.7214 18.1127 40.0994C18.8717 40.3574 20.5352 40.5239 21.1787 39.1889C21.5717 38.5109 21.4457 36.2849 21.4457 33.8714C21.4457 30.0779 21.4637 26.3474 21.4637 22.5074H25.8542C25.8542 26.5394 25.8767 30.5819 25.8542 34.6079C25.8632 37.0754 26.0777 39.3194 25.0772 41.1629ZM43.2932 39.9224C41.7677 45.1439 33.2567 45.3134 29.8577 41.8634C29.1392 41.0519 28.6892 40.6274 28.2602 39.6899C30.0677 38.6504 30.0677 38.6504 31.8257 37.6334C32.7812 39.1019 33.6647 39.9089 35.2532 40.2389C37.4087 40.5014 39.5777 39.7619 39.0917 37.4729C38.5922 35.6024 34.6787 35.1479 32.0147 33.1484C29.3102 31.3319 28.6772 26.9189 30.8987 24.3974C31.6397 23.4644 32.9027 22.7684 34.2272 22.4339C34.6862 22.3754 35.1512 22.3139 35.6102 22.2554C38.2652 22.2014 39.9257 22.9019 41.1437 24.2639C41.4827 24.6074 41.7587 24.9779 42.2777 25.7819C40.8632 26.6834 40.8677 26.6744 38.8412 27.9869C38.4077 27.0539 37.6907 26.4689 36.9317 26.2154C35.7542 25.8584 34.2677 26.2469 33.9602 27.4919C33.8537 27.8759 33.8762 28.2329 34.0457 28.8659C34.5227 29.9549 36.1247 30.4274 37.5617 31.0874C41.6987 32.7659 43.0952 34.5629 43.4387 36.7049C43.7687 38.5484 43.3577 39.7439 43.2962 39.9224H43.2932Z" fill="#4277FF"/>
</svg>
