<svg width="48" height="48" viewBox="0 0 48 48" fill="none" xmlns="http://www.w3.org/2000/svg">
<g clip-path="url(#clip0_696_61)">
<path d="M44.5022 23.64C44.4998 22.2633 44.0417 20.9261 43.1994 19.8371C42.3571 18.7481 41.1781 17.9685 39.8462 17.62L45.8222 0H16.2082L22.2002 17.676C20.9066 18.0531 19.7701 18.8392 18.961 19.9166C18.1519 20.994 17.7137 22.3046 17.7122 23.652C17.7122 25.738 18.7522 27.586 20.3382 28.724C19.7002 29.6235 18.9739 30.4569 18.1702 31.212C16.6918 32.6201 14.9617 33.7375 13.0702 34.506C11.4022 33.38 10.6802 31.394 11.3322 29.614C12.7511 29.1733 13.9654 28.2392 14.7553 26.9807C15.5452 25.7223 15.8586 24.2227 15.6386 22.7533C15.4187 21.2838 14.68 19.9417 13.5563 18.9696C12.4325 17.9976 10.998 17.46 9.51219 17.454C7.8616 17.4561 6.27923 18.1127 5.11208 19.2799C3.94494 20.447 3.28831 22.0294 3.28619 23.68C3.28619 25.376 3.98019 26.932 5.09219 28.044C4.99619 28.238 4.89819 28.434 4.80019 28.642C3.87019 30.56 2.81419 32.728 2.41019 35.16C1.60419 40.024 2.92419 43.928 6.10819 46.138C7.83145 47.3534 9.88945 48.004 11.9982 48C15.6522 48 19.3622 46.166 22.9482 44.386C25.5062 43.122 28.1462 41.802 30.7442 41.162C31.7042 40.926 32.7042 40.788 33.7602 40.634C35.9002 40.328 38.1102 40.01 40.0962 38.854C41.2303 38.2041 42.2086 37.314 42.9625 36.2461C43.7163 35.1782 44.2275 33.9583 44.4602 32.672C44.8082 30.684 44.4602 28.684 43.5722 26.932C44.1682 25.972 44.5022 24.85 44.5022 23.64ZM41.7922 23.64C41.7922 25.57 40.2222 27.14 38.2922 27.14C37.5654 27.138 36.8572 26.9101 36.2656 26.488C35.6739 26.0658 35.2281 25.4702 34.9898 24.7836C34.7515 24.097 34.7325 23.3533 34.9353 22.6554C35.1382 21.9575 35.5529 21.3399 36.1222 20.888L36.1362 20.874C36.2482 20.79 36.3722 20.706 36.4962 20.624C36.4962 20.624 36.5122 20.624 36.5122 20.61C36.5682 20.582 36.6222 20.54 36.6782 20.51C36.6922 20.51 36.7062 20.498 36.7202 20.498C36.7762 20.47 36.8462 20.442 36.9142 20.414C36.9842 20.386 37.0542 20.36 37.1102 20.332C37.1242 20.332 37.1362 20.318 37.1502 20.318C37.2062 20.304 37.2622 20.276 37.3182 20.262C37.3322 20.262 37.3582 20.248 37.3742 20.248C37.4422 20.234 37.4982 20.22 37.5682 20.208H37.5822L37.7902 20.164C37.8042 20.164 37.8302 20.164 37.8462 20.15C37.9022 20.15 37.9562 20.136 38.0122 20.136H38.0822C38.1522 20.136 38.2222 20.122 38.3042 20.122H38.4842C38.5402 20.122 38.5842 20.122 38.6382 20.136H38.6662C38.7762 20.15 38.8882 20.164 39.0002 20.192C39.7892 20.3611 40.4965 20.7952 41.0045 21.4221C41.5125 22.0491 41.7905 22.8331 41.7922 23.64ZM20.0862 2.78H41.9462L36.9282 17.58C36.7202 17.62 36.5122 17.69 36.3042 17.76L31.0242 6.99L25.7282 17.69C25.5202 17.622 25.2962 17.58 25.0742 17.538L20.0862 2.78ZM30.0222 22.43C29.7665 21.1472 29.1095 19.9789 28.1462 19.094L31.0222 13.286L33.9262 19.22C33.0662 20.08 32.4402 21.18 32.1902 22.43H30.0222ZM23.0602 20.234C23.1282 20.22 23.1842 20.206 23.2542 20.194H23.2942C23.3522 20.178 23.4062 20.178 23.4622 20.164H23.5182C23.5742 20.164 23.6162 20.15 23.6702 20.15H24.2122C24.2682 20.15 24.3102 20.164 24.3522 20.164C24.3802 20.164 24.3922 20.164 24.4222 20.178C24.4762 20.192 24.5182 20.192 24.5742 20.206C24.5882 20.206 24.6022 20.206 24.6302 20.22L24.8242 20.26H24.8382C24.8942 20.276 24.9502 20.29 25.0042 20.318C25.0182 20.318 25.0322 20.332 25.0602 20.332C25.1022 20.346 25.1582 20.36 25.2002 20.386C25.2142 20.386 25.2282 20.4 25.2402 20.4C25.2962 20.428 25.3522 20.442 25.4082 20.47H25.4222C25.4864 20.4943 25.547 20.5272 25.6022 20.568H25.6162C25.6722 20.596 25.7282 20.636 25.7842 20.664C25.7982 20.664 25.7982 20.678 25.8102 20.678C25.8662 20.706 25.9102 20.748 25.9642 20.776L25.9782 20.79C26.1442 20.914 26.2982 21.054 26.4502 21.192L26.4642 21.206C27.0835 21.8584 27.4274 22.7245 27.4242 23.624C27.3935 24.5323 27.0111 25.3931 26.3577 26.0248C25.7043 26.6565 24.831 27.0096 23.9222 27.0096C23.0134 27.0096 22.1401 26.6565 21.4867 26.0248C20.8333 25.3931 20.4509 24.5323 20.4202 23.624C20.418 22.8452 20.6768 22.0881 21.1554 21.4736C21.6339 20.8591 22.3046 20.4227 23.0602 20.234ZM9.38419 20.136C11.3162 20.136 12.8862 21.708 12.8862 23.638C12.8862 25.568 11.3162 27.14 9.38619 27.14C7.45619 27.14 5.88219 25.57 5.88219 23.64C5.88219 21.71 7.45419 20.136 9.38419 20.136ZM41.7102 32.186C41.5521 33.0751 41.1999 33.9184 40.6786 34.6558C40.1572 35.3932 39.4797 36.0065 38.6942 36.452C37.1782 37.328 35.3162 37.606 33.3562 37.884C32.2541 38.0252 31.1595 38.2194 30.0762 38.466C27.1862 39.176 24.4082 40.566 21.7122 41.9C18.2642 43.608 15.0122 45.22 11.9982 45.22C10.4526 45.2296 8.94402 44.7478 7.69019 43.844C4.63219 41.732 4.78419 37.772 5.14619 35.604C5.48019 33.574 6.41019 31.672 7.30019 29.85C7.35619 29.74 7.39819 29.642 7.45419 29.53C7.75819 29.642 8.07819 29.726 8.41219 29.782C7.88419 32.728 9.38419 35.77 12.3042 37.272L12.8322 37.55L13.4002 37.342C15.8322 36.48 18.0842 35.076 20.0722 33.2C21.17 32.1763 22.1403 31.024 22.9622 29.768C23.2822 29.822 23.6022 29.836 23.9222 29.836C25.298 29.8328 26.634 29.3746 27.7222 28.5328C28.8104 27.691 29.5895 26.5129 29.9382 25.182H32.2722C32.6186 26.5149 33.3977 27.695 34.4872 28.5373C35.5767 29.3797 36.915 29.8364 38.2922 29.836C39.4442 29.836 40.5122 29.516 41.4322 28.976C41.7922 30.016 41.9042 31.102 41.7102 32.186Z" fill="#4277FF"/>
</g>
<defs>
<clipPath id="clip0_696_61">
<rect width="48" height="48" fill="white"/>
</clipPath>
</defs>
</svg>
