<svg width="48" height="48" viewBox="0 0 48 48" fill="none" xmlns="http://www.w3.org/2000/svg">
<path d="M24 19.2747C26.2995 19.2747 28.1749 21.1526 28.1749 23.5C28.1749 25.7356 26.2995 27.6359 24 27.6359C21.7005 27.6359 19.8251 25.7356 19.8251 23.5C19.8251 21.1526 21.7005 19.2747 24 19.2747ZM13.6633 41.3849C15.0698 42.2345 18.1507 40.9378 21.7005 37.5844C20.5395 36.2654 19.4009 34.8346 18.3293 33.3367C16.4986 33.1579 14.6902 32.8896 12.9712 32.5319C11.8326 37.3161 12.2567 40.6025 13.6633 41.3849ZM15.2484 28.5525L14.6009 27.4123C14.3553 28.0607 14.1098 28.709 13.9535 29.335C14.5563 29.4691 15.226 29.5809 15.9181 29.6927C15.6949 29.3126 15.4716 28.9325 15.2484 28.5525ZM29.8493 26.8534L31.6577 23.5L29.8493 20.1466C29.1795 18.9617 28.4651 17.911 27.8177 16.8602C26.6121 16.7931 25.3395 16.7931 24 16.7931C22.6605 16.7931 21.3879 16.7931 20.1823 16.8602C19.5349 17.911 18.8205 18.9617 18.1507 20.1466L16.3423 23.5L18.1507 26.8534C18.8205 28.0383 19.5349 29.089 20.1823 30.1398C21.3879 30.2069 22.6605 30.2068 24 30.2068C25.3395 30.2068 26.6121 30.2069 27.8177 30.1398C28.4651 29.089 29.1795 28.0383 29.8493 26.8534ZM24 11.8301C23.5758 12.3219 23.1293 12.8361 22.6828 13.4397C23.1293 13.4397 23.5535 13.4397 24 13.4397C24.4465 13.4397 24.8707 13.4397 25.3172 13.4397C24.8707 12.8361 24.4242 12.3219 24 11.8301ZM24 35.1699C24.4242 34.6781 24.8707 34.1639 25.3172 33.5603C24.8707 33.5603 24.4465 33.5603 24 33.5603C23.5535 33.5603 23.1293 33.5603 22.6828 33.5603C23.1293 34.1639 23.5758 34.6781 24 35.1699ZM34.3144 5.61507C32.9302 4.76553 29.8493 6.06219 26.2995 9.41561C27.4605 10.7346 28.5991 12.1654 29.6707 13.6633C31.5014 13.8421 33.3098 14.1104 35.0288 14.4681C36.1674 9.68389 35.7433 6.39753 34.3144 5.61507ZM32.7516 18.4475L33.3991 19.5877C33.6447 18.9393 33.8902 18.291 34.0465 17.665C33.4437 17.5309 32.774 17.4191 32.0819 17.3073C32.3051 17.6874 32.5284 18.0675 32.7516 18.4475ZM35.9888 2.68641C39.2707 4.56433 39.6279 9.50504 38.2437 15.2729C43.9144 16.9496 48 19.7218 48 23.5C48 27.2782 43.9144 30.0504 38.2437 31.7271C39.6279 37.495 39.2707 42.4357 35.9888 44.3136C32.7293 46.1915 28.2865 44.0453 24 39.9541C19.7135 44.0453 15.2707 46.1915 11.9888 44.3136C8.7293 42.4357 8.37209 37.495 9.75628 31.7271C4.08558 30.0504 0 27.2782 0 23.5C0 19.7218 4.08558 16.9496 9.75628 15.2729C8.37209 9.50504 8.7293 4.56433 11.9888 2.68641C15.2707 0.80849 19.7135 2.95468 24 7.04586C28.2865 2.95468 32.7293 0.80849 35.9888 2.68641ZM35.3414 23.5C36.1005 25.1767 36.7702 26.8534 37.3284 28.5525C42.0167 27.1441 44.6512 25.132 44.6512 23.5C44.6512 21.868 42.0167 19.8559 37.3284 18.4475C36.7702 20.1466 36.1005 21.8233 35.3414 23.5ZM12.6586 23.5C11.8995 21.8233 11.2298 20.1466 10.6716 18.4475C5.98326 19.8559 3.34884 21.868 3.34884 23.5C3.34884 25.132 5.98326 27.1441 10.6716 28.5525C11.2298 26.8534 11.8995 25.1767 12.6586 23.5ZM32.7516 28.5525C32.5284 28.9325 32.3051 29.3126 32.0819 29.6927C32.774 29.5809 33.4437 29.4691 34.0465 29.335C33.8902 28.709 33.6447 28.0607 33.3991 27.4123L32.7516 28.5525ZM26.2995 37.5844C29.8493 40.9378 32.9302 42.2345 34.3144 41.3849C35.7433 40.6025 36.1674 37.3161 35.0288 32.5319C33.3098 32.8896 31.5014 33.1579 29.6707 33.3367C28.5991 34.8346 27.4605 36.2654 26.2995 37.5844ZM15.2484 18.4475C15.4716 18.0675 15.6949 17.6874 15.9181 17.3073C15.226 17.4191 14.5563 17.5309 13.9535 17.665C14.1098 18.291 14.3553 18.9393 14.6009 19.5877L15.2484 18.4475ZM21.7005 9.41561C18.1507 6.06219 15.0698 4.76553 13.6633 5.61507C12.2567 6.39753 11.8326 9.68389 12.9712 14.4681C14.6902 14.1104 16.4986 13.8421 18.3293 13.6633C19.4009 12.1654 20.5395 10.7346 21.7005 9.41561Z" fill="#4277FF"/>
</svg>
