<svg width="48" height="48" viewBox="0 0 48 48" fill="none" xmlns="http://www.w3.org/2000/svg">
<path d="M32.428 13.5239L32.278 14.306C32.046 15.788 32.13 16.2119 32.766 16.762L33.38 17.27L32.744 20.1059C32.364 21.7979 31.898 23.216 31.602 23.6819C31.348 24.0839 31.052 24.676 30.988 24.994C30.882 25.3739 30.522 25.756 29.972 26.0939C29.486 26.3699 28.532 27.11 27.856 27.704C27.316 28.19 26.944 28.4879 26.742 28.616L26.082 29.138C25.9123 29.3896 25.7846 29.6673 25.704 29.96C25.658 30.1739 25.684 30.316 25.752 30.4199C25.818 30.52 25.932 30.59 26.088 30.634C26.2727 30.6772 26.4628 30.6927 26.652 30.68C27.0802 30.6507 27.5039 30.5756 27.916 30.4559C28.056 30.418 28.166 30.382 28.262 30.35C28.41 30.1679 28.752 29.824 29.358 29.2259C30.966 27.64 31.58 26.7719 30.946 27.0059C30.712 27.0899 30.818 26.878 31.22 26.4539C32.068 25.628 32.554 24.38 33.57 20.4659C34.374 17.3759 34.374 17.332 34.966 17.332C35.244 17.332 36.03 17.38 36.03 17.38V13.5239H34.226H32.428ZM40.106 19.8539C39.978 19.8539 39.766 20.0459 39.64 20.258C39.408 20.638 39.682 20.87 43.174 23.05C45.248 24.364 46.92 25.484 46.878 25.57C46.836 25.6319 45.142 26.734 43.112 28.004C39.428 30.2879 39.408 30.31 39.746 30.776C40.17 31.3259 39.746 31.516 44.528 28.532L48 26.3099V24.638L44.126 22.246C42.032 20.9339 40.212 19.876 40.106 19.8539ZM7.936 20.0879C7.83 20.0879 6.01 21.1679 3.916 22.4579L0 24.85V26.522L3.894 28.9559C6.054 30.2879 7.874 31.39 7.958 31.39C8.042 31.39 8.212 31.198 8.382 30.9659C8.636 30.5639 8.422 30.394 4.846 28.13C1.44 25.9919 1.08 25.696 1.42 25.4639C1.632 25.316 3.24 24.32 4.976 23.242C8.934 20.8079 8.722 20.9759 8.404 20.468C8.278 20.258 8.064 20.068 7.938 20.0879H7.936ZM25.304 20.134C24.72 20.1299 23.464 21.02 19.704 24.0899C19.542 24.476 19.528 24.742 19.602 24.914C19.65 25.0319 19.738 25.114 19.86 25.174C19.98 25.234 20.136 25.27 20.308 25.2839C20.65 25.3139 21.054 25.2599 21.38 25.196L21.6 25.1459C21.6754 25.045 21.7742 24.9639 21.888 24.91C22.12 24.782 23.094 23.894 24.068 22.942C25.782 21.206 26.184 20.422 25.486 20.168C25.4287 20.1452 25.3676 20.1336 25.306 20.134H25.304ZM29.696 21.34C29.182 21.3539 28.256 21.95 26.67 23.216C25.874 23.8619 25.37 24.2099 25.1 24.2819L24.052 25.1099C23.658 25.8299 23.6 26.276 23.704 26.522C23.73 26.5827 23.7678 26.6375 23.8152 26.6836C23.8626 26.7296 23.9185 26.7657 23.98 26.7899C24.1328 26.8503 24.2957 26.8809 24.46 26.8799C24.8526 26.8757 25.2427 26.8186 25.62 26.71C25.8166 26.6572 26.0108 26.5958 26.202 26.5259L26.26 26.5019L26.366 26.446C26.566 26.188 27.026 25.702 27.602 25.142C29.422 23.386 30.352 22.138 30.162 21.6719C30.076 21.446 29.928 21.332 29.696 21.34ZM24.848 23.5C24.7 23.516 24.368 23.7719 23.77 24.296C22.906 25.06 21.964 25.4999 21.638 25.304C21.5622 25.321 21.4862 25.3371 21.41 25.352C21.078 25.418 20.664 25.472 20.294 25.442C20.1197 25.4314 19.9488 25.3887 19.79 25.316C19.6403 25.2474 19.5208 25.1265 19.454 24.976C19.38 24.796 19.38 24.572 19.464 24.286L18.164 25.354L15.222 27.788V31.7339L24.862 24.14C24.8602 24.0568 24.871 23.9739 24.894 23.894C24.968 23.626 24.964 23.4899 24.848 23.5019V23.5ZM28.996 24.778C28.85 24.778 28.606 24.9839 28.216 25.3979C27.686 25.964 26.852 26.512 26.41 26.624L26.342 26.66C26.2694 26.69 26.1961 26.7179 26.122 26.744C26.002 26.7839 25.846 26.8319 25.666 26.8799C25.306 26.978 24.858 27.068 24.458 27.058C24.2694 27.0578 24.0827 27.021 23.908 26.95C23.7433 26.8821 23.6114 26.7531 23.54 26.59C23.424 26.312 23.47 25.922 23.724 25.3679L15.22 32.066V34.4759H18.956L26.88 28.252C27.086 28.024 27.396 27.712 27.814 27.322C28.934 26.284 29.188 25.9259 29.188 25.396C29.188 24.9839 29.142 24.776 28.996 24.776V24.778ZM30.882 28.678L30.204 29.354C29.824 29.714 29.146 30.158 28.682 30.3479L28.59 30.388L28.584 30.398L28.564 30.418C28.546 30.4319 28.538 30.434 28.524 30.44C28.3387 30.51 28.1506 30.5721 27.96 30.626C27.5363 30.7493 27.1003 30.8264 26.66 30.856C26.4518 30.8693 26.2428 30.8511 26.04 30.802C25.8641 30.7632 25.7087 30.6606 25.604 30.514C25.508 30.3659 25.48 30.1679 25.534 29.924C25.5769 29.7502 25.6408 29.5823 25.724 29.4239L19.33 34.4759H27.834L28.85 33.3119C30.246 31.684 30.882 30.52 30.882 29.524V28.678Z" fill="#4277FF"/>
</svg>
